<?xml version="1.0" encoding="UTF-8"?>
<svg id="_レイヤー_1" data-name="レイヤー 1" xmlns="http://www.w3.org/2000/svg" viewBox="0 0 128 128">
  <defs>
    <style>
      .cls-1 {
        fill: #fff;
      }

      .cls-1, .cls-2 {
        fill-rule: evenodd;
      }

      .cls-2 {
        fill: #e91e63;
      }

      .cls-3 {
        opacity: .7;
      }
    </style>
  </defs>
  <g class="cls-3">
    <path class="cls-2" d="M107.43,99.94s20.72-26.71-5.86-45.06c0,0,22.66-27.19-8.4-37.67,0,0-8.62-3.19-14.29,4.95,0,0-4.12-11.69-19.81-11.62,0,0-19.26,2.25-15.56,18.41,0,0-16.67-6.05-23.83,7.49,0,0-6.94,13.6,2.78,20.51,0,0-17.53,9.12-5.18,28.71,0,0,9.17,14.84,24.64,7.76,0,0,2.61,29.94,40.05,22.99,0,0,13.86-2.48,25.46-16.48h0Z"/>
    <path class="cls-1" d="M82.69,63.26c-4.66-6.52-13.02-8.81-19.44-4.86-6.31,3.82-8.13,12.17-4.63,19.16-3.84,6.58-4.35,14.17-.67,20.17,5.82,9.52,20.01,11.44,31.69,4.31,11.65-7.17,16.41-20.69,10.57-30.2-3.57-5.8-10.22-8.74-17.51-8.59h0Z"/>
    <path class="cls-1" d="M47.5,40.12c5.23,5,6.1,12.69,1.84,17.16-4.24,4.47-11.98,4.05-17.23-.94-5.26-5.01-6.1-12.69-1.87-17.17,4.24-4.46,11.97-4.05,17.26.95h0Z"/>
    <path class="cls-1" d="M38.07,63.6c7.05,1.71,11.62,7.94,10.18,13.95-1.46,5.99-8.35,9.5-15.42,7.78-7.04-1.69-11.62-7.91-10.16-13.92,1.42-6.02,8.32-9.51,15.4-7.81h0Z"/>
    <path class="cls-1" d="M72.94,30.24c2.05,6.95-1.06,14.03-6.99,15.79-5.9,1.74-12.39-2.48-14.43-9.46-2.07-6.96,1.07-14.03,6.99-15.77,5.88-1.74,12.38,2.45,14.43,9.44h0Z"/>
    <path class="cls-1" d="M99.74,42.29c-1.74,7.06-7.96,11.6-13.99,10.18-5.98-1.44-9.48-8.36-7.78-15.39,1.72-7.08,7.93-11.64,13.95-10.19,5.98,1.43,9.49,8.34,7.82,15.4h0Z"/>
  </g>
</svg>