<?xml version="1.0" encoding="UTF-8"?>
<svg id="_レイヤー_2" data-name="レイヤー 2" xmlns="http://www.w3.org/2000/svg" xmlns:xlink="http://www.w3.org/1999/xlink" viewBox="0 0 112 112">
  <defs>
    <style>
      .cls-1 {
        fill: #fff;
      }

      .cls-2 {
        fill: none;
      }

      .cls-3 {
        fill: #fff799;
      }

      .cls-4 {
        clip-path: url(#clippath);
      }
    </style>
    <clipPath id="clippath">
      <rect class="cls-2" width="112" height="112"/>
    </clipPath>
  </defs>
  <g id="_レイヤー_1-2" data-name="レイヤー 1">
    <g class="cls-4">
      <g>
        <rect class="cls-3" x="80" y="108" width="64" height="64"/>
        <rect class="cls-3" x="-32" y="108" width="64" height="64"/>
        <g>
          <rect class="cls-3" x="80" y="52" width="64" height="64"/>
          <path class="cls-1" d="M101.23,87.61l-3.81-.41.06-.56,3.8.41c.02-.19.06-.37.1-.56l-3.78-1.04.15-.54,3.77,1.04c.32-1.13.9-2.21,1.67-3.18l2.35-9.65,4.79,5.6c.89-.13,1.82-.15,2.76-.05.98.11,1.91.34,2.79.68l5.92-4.46.23,10.22c.46,1.02.74,2.09.81,3.15l3.87-.2.03.56-3.88.2c0,.19-.01.38-.03.57l3.77.41-.06.56-3.77-.41c-.03.19-.07.38-.12.56l3.77,1.04-.15.54-3.79-1.04c-1.3,3.59-5.83,4.23-11.12,3.66-5.3-.58-9.58-2.17-10.08-5.96l-3.96.21-.03-.56,3.94-.21c0-.18,0-.37,0-.57Z"/>
        </g>
        <g>
          <rect class="cls-3" x="24" y="80" width="64" height="64"/>
          <path class="cls-1" d="M45.23,115.61l-3.81-.41.06-.56,3.8.41c.02-.19.06-.37.1-.56l-3.78-1.04.15-.54,3.77,1.04c.32-1.13.9-2.21,1.67-3.18l2.35-9.65,4.79,5.6c.89-.13,1.82-.15,2.76-.05.98.11,1.91.34,2.79.68l5.92-4.46.23,10.22c.46,1.02.74,2.09.81,3.15l3.87-.2.03.56-3.88.2c0,.19-.01.38-.03.57l3.77.41-.06.56-3.77-.41c-.03.19-.07.38-.12.56l3.77,1.04-.15.54-3.79-1.04c-1.3,3.59-5.83,4.23-11.12,3.66-5.3-.58-9.58-2.17-10.08-5.96l-3.96.21-.03-.56,3.94-.21c0-.18,0-.37,0-.57Z"/>
        </g>
        <g>
          <rect class="cls-3" x="-32" y="52" width="64" height="64"/>
          <path class="cls-1" d="M-10.77,87.61l-3.81-.41.06-.56,3.8.41c.02-.19.06-.37.1-.56l-3.78-1.04.15-.54,3.77,1.04c.32-1.13.9-2.21,1.67-3.18l2.35-9.65,4.79,5.6c.89-.13,1.82-.15,2.76-.05.98.11,1.91.34,2.79.68l5.92-4.46.23,10.22c.46,1.02.74,2.09.81,3.15l3.87-.2.03.56-3.88.2c0,.19-.01.38-.03.57l3.77.41-.06.56-3.77-.41c-.03.19-.07.38-.12.56l3.77,1.04-.15.54-3.79-1.04c-1.3,3.59-5.83,4.23-11.12,3.66-5.3-.58-9.58-2.17-10.08-5.96l-3.96.21-.03-.56,3.94-.21c0-.18,0-.37,0-.57Z"/>
        </g>
        <g>
          <rect class="cls-3" x="80" y="-4" width="64" height="64"/>
          <path class="cls-1" d="M101.23,31.61l-3.81-.41.06-.56,3.8.41c.02-.19.06-.37.1-.56l-3.78-1.04.15-.54,3.77,1.04c.32-1.13.9-2.21,1.67-3.18l2.35-9.65,4.79,5.6c.89-.13,1.82-.15,2.76-.05.98.11,1.91.34,2.79.68l5.92-4.46.23,10.22c.46,1.02.74,2.09.81,3.15l3.87-.2.03.56-3.88.2c0,.19-.01.38-.03.57l3.77.41-.06.56-3.77-.41c-.03.19-.07.38-.12.56l3.77,1.04-.15.54-3.79-1.04c-1.3,3.59-5.83,4.23-11.12,3.66-5.3-.58-9.58-2.17-10.08-5.96l-3.96.21-.03-.56,3.94-.21c0-.18,0-.37,0-.57Z"/>
        </g>
        <g>
          <rect class="cls-3" x="24" y="24" width="64" height="64"/>
          <path class="cls-1" d="M45.23,59.61l-3.81-.41.06-.56,3.8.41c.02-.19.06-.37.1-.56l-3.78-1.04.15-.54,3.77,1.04c.32-1.13.9-2.21,1.67-3.18l2.35-9.65,4.79,5.6c.89-.13,1.82-.15,2.76-.05.98.11,1.91.34,2.79.68l5.92-4.46.23,10.22c.46,1.02.74,2.09.81,3.15l3.87-.2.03.56-3.88.2c0,.19-.01.38-.03.57l3.77.41-.06.56-3.77-.41c-.03.19-.07.38-.12.56l3.77,1.04-.15.54-3.79-1.04c-1.3,3.59-5.83,4.23-11.12,3.66-5.3-.58-9.58-2.17-10.08-5.96l-3.96.21-.03-.56,3.94-.21c0-.18,0-.37,0-.57Z"/>
        </g>
        <g>
          <rect class="cls-3" x="-32" y="-4" width="64" height="64"/>
          <path class="cls-1" d="M-10.77,31.61l-3.81-.41.06-.56,3.8.41c.02-.19.06-.37.1-.56l-3.78-1.04.15-.54,3.77,1.04c.32-1.13.9-2.21,1.67-3.18l2.35-9.65,4.79,5.6c.89-.13,1.82-.15,2.76-.05.98.11,1.91.34,2.79.68l5.92-4.46.23,10.22c.46,1.02.74,2.09.81,3.15l3.87-.2.03.56-3.88.2c0,.19-.01.38-.03.57l3.77.41-.06.56-3.77-.41c-.03.19-.07.38-.12.56l3.77,1.04-.15.54-3.79-1.04c-1.3,3.59-5.83,4.23-11.12,3.66-5.3-.58-9.58-2.17-10.08-5.96l-3.96.21-.03-.56,3.94-.21c0-.18,0-.37,0-.57Z"/>
        </g>
        <rect class="cls-3" x="80" y="-60" width="64" height="64"/>
        <g>
          <rect class="cls-3" x="24" y="-32" width="64" height="64"/>
          <path class="cls-1" d="M45.23,3.61l-3.81-.41.06-.56,3.8.41c.02-.19.06-.37.1-.56l-3.78-1.04.15-.54,3.77,1.04c.32-1.13.9-2.21,1.67-3.18l2.35-9.65,4.79,5.6c.89-.13,1.82-.15,2.76-.05.98.11,1.91.34,2.79.68l5.92-4.46.23,10.22c.46,1.02.74,2.09.81,3.15l3.87-.2.03.56-3.88.2c0,.19-.01.38-.03.57l3.77.41-.06.56-3.77-.41c-.03.19-.07.38-.12.56l3.77,1.04-.15.54-3.79-1.04c-1.3,3.59-5.83,4.23-11.12,3.66-5.3-.58-9.58-2.17-10.08-5.96l-3.96.21-.03-.56,3.94-.21c0-.18,0-.37,0-.57Z"/>
        </g>
        <rect class="cls-3" x="-32" y="-60" width="64" height="64"/>
      </g>
    </g>
  </g>
</svg>