<?xml version="1.0" encoding="UTF-8"?>
<svg id="_レイヤー_2" data-name="レイヤー 2" xmlns="http://www.w3.org/2000/svg" viewBox="0 0 128 128">
  <defs>
    <style>
      .cls-1 {
        fill: #fff;
        fill-rule: evenodd;
      }

      .cls-2, .cls-3 {
        fill: #e91e63;
      }

      .cls-3 {
        stroke: #e91e63;
        stroke-linecap: round;
        stroke-linejoin: round;
      }
    </style>
  </defs>
  <g id="_レイヤー_1-2" data-name="レイヤー 1">
    <g>
      <rect class="cls-2" width="128" height="128"/>
      <g>
        <path class="cls-1" d="M30,47.76c-.03-2.03.9-3.69,1.45-5.24.19-.54.03-.86.23-1.42,1.47-4.12,3.71-8.03,5.87-11.57,1.13-1.86,1.21-4.94,4.19-4.9.27.27.76.35.98.66.29.39.44.85.76,1.21.13.15.43.16.55.33.77,1.12,1.2,2.28,1.96,3.4.58.86,1.5,1.58,2.07,2.42.45.65.8,1.44,1.2,2.08.5.82,1.66,3.88,2.5,4.06.37-.22,1.03.04,1.54-.1.93-.26,2.6-.18,3.73-.42.58,0,1.17,0,1.76,0,1.84-.39,4.27.2,6.14-.19,1.31-.27,2.91.12,4.39-.2,3.08-.66,7.79-.18,11.3-.17.77-1.1,2.17-1.86,3.19-2.72.52-.44.91-1.19,1.32-1.74.34-.45.96-.65,1.43-.98.8-.56,1.37-1.62,2.2-2.18.59-.4,1.35-.51,1.87-.98.35-.31.6-.82.99-1.09.6-.41,1.34-.6,1.87-1.09,1.14-1.03,3.75-3.24,5.72-3.26.49.47,1.04.61,1.31,1.32.6,1.55.35,4.03.74,5.8.31,1.41.46,3.05.75,4.38,0,.58,0,1.17,0,1.75.21.98.21,2.52.42,3.5,0,1.02,0,2.04-.01,3.06.36,1.16.31,2.76.31,4.38,2.15,1.06,3.43,3.43,4.8,5.27.8,1.07,1.87,2.05,2.62,3.18,1.11,1.68,1.77,3.57,2.61,5.48.17.39.62.79.76,1.21.19.56.02.88.21,1.42.21.6.77,1.34.98,1.97v.88c.31,1.34.4,2.77.74,4.27.55,2.36.53,5.96-.15,8.2,0,.51,0,1.02,0,1.53-.74,2.26-1.83,5.28-3.1,7.1-5.28,7.56-14.86,11.45-24.42,14.66-2.43.82-5.29.7-7.9,1.28-5.26-.02-10.53-.05-15.8-.07-4.57-.02-9.37.18-13.27-.72-.58,0-1.17,0-1.76,0-1.86-.42-4.33-.01-6.14-.57-1.92-.6-4.19-.66-6.14-1.34-6.03-2.12-12.2-3.53-16.97-6.86-1.2-.83-3.1-3.15-3.93-4.39-.25-.37-.25-.88-.54-1.21-.13-.15-.43-.16-.55-.33-.34-.5-.89-1.78-1.09-2.3-.45-1.16-.86-2.29-1.19-3.4-.03-.58-.07-1.17-.1-1.75-.65-3.03.12-7.69.81-9.95v-1.53c.26-.83.66-2.02.9-2.73l.12-1.42c.12-.33.51-.68.66-.98.25-.48.23-.93.45-1.42.23-.53.7-1.05.99-1.53,1.02-1.67,1.38-3.64,2.44-5.24.69-1.05,1.93-2.09,2.76-3.05,2.13-2.49,3.44-4.35,7.15-5.33.47-.12.72-.38,1.32-.43Z"/>
        <g>
          <path class="cls-3" d="M40.4,63.71c-.19,0-.39-.04-.6-.13-1.31-.48-3.04-.73-5.19-.73-.7,0-1.51.05-2.44.15-.93.1-1.98.26-3.14.47l-.03,6.82c2.04-.54,3.56-.8,4.59-.8,1.62,0,3.31.09,5.05.28.99.11,1.49.64,1.49,1.61,0,.47-.15.87-.46,1.18s-.69.46-1.14.46c-.55,0-1.37-.05-2.47-.14s-1.92-.14-2.47-.14c-.72,0-2.27.31-4.65.92l-.14,10.85c0,.45-.15.83-.44,1.14-.3.31-.67.46-1.12.46s-.83-.16-1.13-.46c-.3-.31-.45-.69-.45-1.14,0-2.07.04-5.18.12-9.33.08-4.15.12-7.26.12-9.33,0-.46,0-1.16-.02-2.09-.02-.93-.03-1.63-.03-2.09s.15-.85.44-1.17c.29-.32.67-.47,1.13-.47.35,0,.66.09.93.28,1.31-.23,2.48-.4,3.53-.51,1.04-.11,1.96-.17,2.75-.17,1.21,0,2.6.17,4.16.52,2.12.48,3.18,1.11,3.18,1.89,0,.42-.14.79-.41,1.12-.31.37-.69.55-1.14.55Z"/>
          <path class="cls-3" d="M60.38,84.61c-.4,0-.77-.17-1.12-.5-3.49-3.44-7.37-5.75-11.64-6.94l.13,3.09.08,3.11c0,.46-.15.85-.45,1.16-.3.31-.68.47-1.13.47s-.83-.16-1.13-.47c-.3-.31-.45-.7-.45-1.16,0-.83-.04-2.07-.12-3.71-.08-1.65-.12-2.88-.12-3.72,0-.97.11-2.41.32-4.32.21-1.91.32-3.35.32-4.31,0-.54-.05-1.33-.15-2.38-.1-1.05-.15-1.85-.15-2.38,0-.6.17-1.13.51-1.58.4-.56.96-.81,1.66-.76l3.81.3c1.44.18,2.66.53,3.66,1.06,4.27,2.26,6.41,5.02,6.41,8.28,0,1.6-.73,3.01-2.18,4.24-1.17.99-2.63,1.74-4.38,2.26,3.28,1.76,5.73,3.61,7.36,5.55.27.34.41.69.41,1.07,0,.44-.16.83-.48,1.15-.32.33-.7.49-1.13.49ZM50.31,63.76l-2.34-.19.16,1.91c.07.78.11,1.41.11,1.91,0,.84-.07,1.89-.2,3.14l-.33,3.14c.15,0,.38,0,.69.02.31.01.55.02.7.02,2.69,0,4.7-.36,6.04-1.07.59-.33,1.14-.75,1.65-1.28.56-.59.84-1.09.84-1.5,0-1.46-.83-2.82-2.5-4.09-1.53-1.16-3.13-1.82-4.81-2Z"/>
          <path class="cls-3" d="M80.57,63.21c-.15,0-.31-.03-.49-.08-1.78-.5-3.5-.76-5.16-.76-.86,0-1.81.08-2.83.24s-2.12.4-3.31.73c.09.68.14,1.23.14,1.64,0,1.46-.09,3.47-.27,6.03l6.93-.66c2.04-.21,3.28-.32,3.75-.32s.85.15,1.17.44.47.69.47,1.18c0,.96-.49,1.49-1.46,1.61l-3.77.33-7.31.66c-.04.75-.08,1.45-.1,2.12-.03.67-.04,1.29-.04,1.87,0,2.32.17,3.69.51,4.1.25.29,1.08.44,2.48.44.65,0,1.64-.02,2.95-.06,1.31-.04,2.3-.05,2.97-.05.21,0,.52-.03.93-.1.41-.07.72-.1.92-.1,1.12,0,1.68.55,1.68,1.64,0,.88-.45,1.41-1.35,1.59-.99.2-3.14.3-6.44.3s-5.37-.43-6.3-1.29c-1.01-.94-1.52-3.09-1.52-6.47,0-.67.01-1.41.05-2.21s.07-1.66.13-2.59c-.12-.24-.17-.5-.17-.77,0-.36.1-.68.3-.96.21-3.04.32-5.28.32-6.74,0-.39-.05-.96-.16-1.71-.11-.75-.16-1.32-.16-1.71,0-1.25.53-1.88,1.58-1.88.44,0,.82.15,1.14.46,1.27-.34,2.46-.59,3.58-.76,1.12-.17,2.18-.25,3.17-.25,2.56,0,4.61.31,6.14.92.71.28,1.06.79,1.06,1.51,0,.42-.14.79-.41,1.12-.31.36-.69.54-1.14.54Z"/>
          <path class="cls-3" d="M100.81,63.21c-.15,0-.31-.03-.49-.08-1.78-.5-3.5-.76-5.16-.76-.86,0-1.81.08-2.83.24s-2.13.4-3.31.73c.09.68.14,1.23.14,1.64,0,1.46-.09,3.47-.27,6.03l6.93-.66c2.04-.21,3.29-.32,3.75-.32s.85.15,1.17.44.47.69.47,1.18c0,.96-.49,1.49-1.46,1.61l-3.77.33-7.31.66c-.04.75-.08,1.45-.1,2.12-.03.67-.04,1.29-.04,1.87,0,2.32.17,3.69.51,4.1.25.29,1.08.44,2.48.44.65,0,1.64-.02,2.95-.06,1.31-.04,2.3-.05,2.97-.05.21,0,.52-.03.93-.1.41-.07.72-.1.92-.1,1.12,0,1.68.55,1.68,1.64,0,.88-.45,1.41-1.34,1.59-.99.2-3.14.3-6.44.3s-5.37-.43-6.3-1.29c-1.01-.94-1.52-3.09-1.52-6.47,0-.67.02-1.41.05-2.21s.07-1.66.13-2.59c-.12-.24-.18-.5-.18-.77,0-.36.1-.68.3-.96.21-3.04.32-5.28.32-6.74,0-.39-.05-.96-.16-1.71-.11-.75-.16-1.32-.16-1.71,0-1.25.53-1.88,1.58-1.88.44,0,.82.15,1.14.46,1.27-.34,2.46-.59,3.58-.76,1.12-.17,2.18-.25,3.17-.25,2.56,0,4.61.31,6.14.92.71.28,1.06.79,1.06,1.51,0,.42-.14.79-.41,1.12-.31.36-.69.54-1.14.54Z"/>
        </g>
      </g>
    </g>
  </g>
</svg>