<?xml version="1.0" encoding="UTF-8"?>
<svg id="_レイヤー_2" data-name="レイヤー 2" xmlns="http://www.w3.org/2000/svg" viewBox="0 0 221.41 31.35">
  <defs>
    <style>
      .cls-1 {
        fill: #17bfff;
      }

      .cls-2 {
        fill: #b00046;
      }

      .cls-3 {
        fill: #fff;
      }
    </style>
  </defs>
  <g id="_レイヤー_1-2" data-name="レイヤー 1">
    <g>
      <g>
        <g>
          <path class="cls-2" d="M31.24,7.86l-1.41-1.84c-3.02-3.94-7.61-6.02-13.29-6.02C6.96,0,0,6.59,0,15.67s6.96,15.67,16.54,15.67c5.67,0,10.27-2.08,13.29-6.02l1.41-1.84-8.75-7.81,8.75-7.82ZM21.93,15.67l-1.42,1.8c-1.4,1.77-2.63,2-3.54,2-2.16,0-3.4-1.38-3.4-3.8s1.24-3.8,3.4-3.8c.92,0,2.15.23,3.54,2l1.42,1.8Z"/>
          <polygon class="cls-2" points="57.63 30.77 46.98 30.77 41.07 23.71 41.07 30.77 27.79 30.77 27.79 .58 38.44 .58 44.35 7.64 44.35 .58 57.63 .58 57.63 30.77"/>
          <path class="cls-2" d="M68.63,31.35c-4.61,0-9.31-1.13-12.29-2.96l-1.86-1.14,4.11-9.29c-1.77-1.51-3.04-3.7-3.04-6.96,0-5.47,4.4-11,14.23-11,4.03,0,7.84.89,10.73,2.52l1.94,1.09-3.75,9.02c2.34,1.49,4.17,3.84,4.17,7.73,0,5.47-4.4,10.99-14.23,10.99Z"/>
        </g>
        <g>
          <path class="cls-3" d="M2.5,15.67c0-7.74,5.94-13.17,14.04-13.17,4.93,0,8.82,1.8,11.3,5.04l-5.36,4.79c-1.48-1.87-3.24-2.95-5.51-2.95-3.53,0-5.9,2.45-5.9,6.3s2.38,6.3,5.9,6.3c2.27,0,4.03-1.08,5.51-2.95l5.36,4.79c-2.48,3.24-6.37,5.04-11.3,5.04-8.1,0-14.04-5.44-14.04-13.17Z"/>
          <path class="cls-3" d="M55.13,3.08v25.2h-6.98l-9.57-11.45v11.45h-8.28V3.08h6.98l9.58,11.45V3.08h8.28Z"/>
          <path class="cls-3" d="M57.65,26.26l2.74-6.19c2.38,1.4,5.54,2.3,8.31,2.3,2.41,0,3.28-.5,3.28-1.37,0-3.17-13.93-.61-13.93-10.01,0-4.68,3.92-8.5,11.73-8.5,3.38,0,6.88.72,9.5,2.2l-2.56,6.16c-2.48-1.26-4.82-1.87-7.02-1.87-2.48,0-3.28.72-3.28,1.58,0,3.02,13.93.5,13.93,9.79,0,4.61-3.92,8.49-11.73,8.49-4.21,0-8.46-1.04-10.98-2.59Z"/>
        </g>
      </g>
      <g>
        <g>
          <path class="cls-2" d="M118.88,14.76c1.1-1.43,1.69-3.17,1.69-5.1,0-4.39-3.33-9.09-12.69-9.09h-15.96v30.2h16.68c12.21,0,13.15-7.23,13.15-9.45,0-2.64-1.02-4.91-2.88-6.57Z"/>
          <rect class="cls-2" x="119.75" y=".58" width="13.5" height="30.2"/>
          <polygon class="cls-2" points="162.19 30.77 151.54 30.77 145.63 23.71 145.63 30.77 132.35 30.77 132.35 .58 143 .58 148.91 7.64 148.91 .58 162.19 .58 162.19 30.77"/>
          <path class="cls-2" d="M176.86,31.35c-9.6,0-16.57-6.59-16.57-15.67s7.05-15.67,16.75-15.67c5.64,0,10.41,2.05,13.46,5.78l1.52,1.87-5.5,4.85h3.82v14.48l-1.09.74c-3.34,2.28-7.97,3.64-12.39,3.64ZM177.47,11.88c-2.99,0-3.62,2.07-3.62,3.8,0,2.41,1.28,3.8,3.51,3.8.2,0,.4,0,.6-.03v-6.95h1.8c-.7-.42-1.44-.62-2.28-.62Z"/>
          <path class="cls-2" d="M204.69,31.35c-9.53,0-16.72-6.74-16.72-15.67s7.19-15.67,16.72-15.67,16.72,6.74,16.72,15.67-7.19,15.67-16.72,15.67ZM204.69,11.88c-1.94,0-3.15,1.46-3.15,3.8s1.21,3.8,3.15,3.8,3.15-1.46,3.15-3.8-1.21-3.8-3.15-3.8Z"/>
        </g>
        <g>
          <path class="cls-1" d="M119.26,21.33c0,4.39-3.71,6.95-10.65,6.95h-14.18V3.08h13.46c6.95,0,10.19,2.77,10.19,6.59,0,2.34-1.19,4.28-3.49,5.44,2.95,1.08,4.68,3.24,4.68,6.23ZM102.78,9.02v3.74h3.96c1.91,0,2.77-.65,2.77-1.87s-.86-1.87-2.77-1.87h-3.96ZM110.69,20.35c0-1.3-.94-1.98-2.81-1.98h-5.11v3.96h5.11c1.87,0,2.81-.68,2.81-1.98Z"/>
          <path class="cls-1" d="M122.25,3.08h8.5v25.2h-8.5V3.08Z"/>
          <path class="cls-1" d="M159.69,3.08v25.2h-6.98l-9.57-11.45v11.45h-8.28V3.08h6.98l9.58,11.45V3.08h8.28Z"/>
          <path class="cls-1" d="M180.46,14.99h7.38v10.65c-3.06,2.09-7.27,3.2-10.98,3.2-8.14,0-14.07-5.44-14.07-13.17s5.94-13.17,14.25-13.17c4.97,0,8.96,1.73,11.52,4.86l-5.44,4.79c-1.58-1.84-3.42-2.77-5.65-2.77-3.74,0-6.12,2.41-6.12,6.3s2.38,6.3,6.01,6.3c1.04,0,2.05-.18,3.1-.61v-6.37Z"/>
          <path class="cls-1" d="M190.47,15.67c0-7.63,6.01-13.17,14.22-13.17s14.22,5.54,14.22,13.17-6.01,13.17-14.22,13.17-14.22-5.54-14.22-13.17ZM210.34,15.67c0-3.92-2.52-6.3-5.65-6.3s-5.65,2.38-5.65,6.3,2.52,6.3,5.65,6.3,5.65-2.38,5.65-6.3Z"/>
        </g>
      </g>
    </g>
  </g>
</svg>